G04 #@! TF.GenerationSoftware,KiCad,Pcbnew,(5.1.2-1)-1*
G04 #@! TF.CreationDate,2019-10-04T07:05:19-04:00*
G04 #@! TF.ProjectId,CANtina,43414e74-696e-4612-9e6b-696361645f70,rev?*
G04 #@! TF.SameCoordinates,Original*
G04 #@! TF.FileFunction,Copper,L1,Top*
G04 #@! TF.FilePolarity,Positive*
%FSLAX46Y46*%
G04 Gerber Fmt 4.6, Leading zero omitted, Abs format (unit mm)*
G04 Created by KiCad (PCBNEW (5.1.2-1)-1) date 2019-10-04 07:05:19*
%MOMM*%
%LPD*%
G04 APERTURE LIST*
%ADD10C,1.600000*%
%ADD11C,1.800000*%
%ADD12C,0.250000*%
G04 APERTURE END LIST*
D10*
X149352000Y-111252000D03*
X151892000Y-111252000D03*
X152400000Y-92456000D03*
X149860000Y-92456000D03*
D11*
X141780000Y-96040000D03*
X136280000Y-96040000D03*
X141780000Y-99540000D03*
X136280000Y-99540000D03*
X141780000Y-104930000D03*
X136280000Y-104930000D03*
X141780000Y-108430000D03*
X136280000Y-108430000D03*
X141780000Y-87150000D03*
X136280000Y-87150000D03*
X141780000Y-90650000D03*
X136280000Y-90650000D03*
X159210000Y-117320000D03*
X164710000Y-117320000D03*
X159210000Y-113820000D03*
X164710000Y-113820000D03*
X141780000Y-113820000D03*
X136280000Y-113820000D03*
X141780000Y-117320000D03*
X136280000Y-117320000D03*
X159210000Y-99540000D03*
X164710000Y-99540000D03*
X159210000Y-96040000D03*
X164710000Y-96040000D03*
X159210000Y-108430000D03*
X164710000Y-108430000D03*
X159210000Y-104930000D03*
X164710000Y-104930000D03*
X159210000Y-90650000D03*
X164710000Y-90650000D03*
X159210000Y-87150000D03*
X164710000Y-87150000D03*
X149126000Y-124666000D03*
X149126000Y-130166000D03*
X152626000Y-124666000D03*
X152626000Y-130166000D03*
X152626000Y-81074000D03*
X152626000Y-75574000D03*
X149126000Y-81074000D03*
X149126000Y-75574000D03*
D12*
X141780000Y-87150000D02*
X136426000Y-87150000D01*
X136426000Y-87150000D02*
X136144000Y-86868000D01*
X136280000Y-96040000D02*
X141704000Y-96040000D01*
X141704000Y-96040000D02*
X141732000Y-96012000D01*
X141780000Y-104930000D02*
X136370000Y-104930000D01*
X136370000Y-104930000D02*
X136144000Y-105156000D01*
X136280000Y-113820000D02*
X141704000Y-113820000D01*
X141704000Y-113820000D02*
X141732000Y-113792000D01*
X164710000Y-117320000D02*
X159032000Y-117320000D01*
X159032000Y-117320000D02*
X159004000Y-117348000D01*
X149126000Y-130166000D02*
X149126000Y-124686000D01*
X149126000Y-124686000D02*
X149352000Y-124460000D01*
X164710000Y-108430000D02*
X159286000Y-108430000D01*
X159286000Y-108430000D02*
X159004000Y-108712000D01*
X160482792Y-99540000D02*
X160510792Y-99568000D01*
X159210000Y-99540000D02*
X160482792Y-99540000D01*
X160510792Y-99568000D02*
X164592000Y-99568000D01*
X164710000Y-90650000D02*
X159230000Y-90650000D01*
X159230000Y-90650000D02*
X159004000Y-90424000D01*
X159210000Y-90650000D02*
X154206000Y-90650000D01*
X154206000Y-90650000D02*
X152400000Y-92456000D01*
X164710000Y-90650000D02*
X166516000Y-92456000D01*
X166516000Y-92456000D02*
X166516000Y-97644000D01*
X166516000Y-97644000D02*
X164592000Y-99568000D01*
X159210000Y-99540000D02*
X156972000Y-101778000D01*
X156972000Y-101778000D02*
X156972000Y-106680000D01*
X156972000Y-106680000D02*
X159004000Y-108712000D01*
X164710000Y-108430000D02*
X167132000Y-110852000D01*
X167132000Y-110852000D02*
X167132000Y-115316000D01*
X167132000Y-115316000D02*
X165100000Y-117348000D01*
X159210000Y-117320000D02*
X156492000Y-117320000D01*
X156492000Y-117320000D02*
X149352000Y-124460000D01*
X141780000Y-113820000D02*
X146784000Y-113820000D01*
X146784000Y-113820000D02*
X149352000Y-111252000D01*
X136280000Y-113820000D02*
X133604000Y-111144000D01*
X133604000Y-111144000D02*
X133604000Y-107188000D01*
X133604000Y-107188000D02*
X136144000Y-104648000D01*
X141780000Y-104930000D02*
X144272000Y-102438000D01*
X144272000Y-102438000D02*
X144272000Y-98552000D01*
X144272000Y-98552000D02*
X141732000Y-96012000D01*
X136280000Y-96040000D02*
X133604000Y-93364000D01*
X133604000Y-93364000D02*
X133604000Y-89916000D01*
X133604000Y-89916000D02*
X133604000Y-89408000D01*
X133604000Y-89408000D02*
X136144000Y-86868000D01*
X154206000Y-90650000D02*
X154206000Y-82578000D01*
X154206000Y-82578000D02*
X152908000Y-81280000D01*
X152908000Y-81280000D02*
X152400000Y-80772000D01*
X152400000Y-80772000D02*
X152400000Y-75184000D01*
M02*
